<svg width="0" height="0" class="hidden">
  <symbol xmlns="http://www.w3.org/2000/svg" fill="none" viewBox="0 0 50 50" id="bulb_icon">
    <path stroke-linecap="round" stroke-linejoin="round" stroke-width="3.13" d="M38.33 11.67l-1.45 1.46M6.25 25h2.08-2.08zM25 6.25v2.08-2.08zM41.67 25h2.08-2.08zm-30-13.33l1.46 1.46-1.46-1.46zm7.08 21.66a10.42 10.42 0 1112.5 0 7.3 7.3 0 00-2.08 6.25 4.17 4.17 0 11-8.34 0 7.3 7.3 0 00-2.08-6.25m1.45 2.09h9.6"></path>
  </symbol>
  <symbol xmlns="http://www.w3.org/2000/svg" fill="none" viewBox="0 0 28 28" id="fb_icon">
    <path stroke-linecap="round" stroke-linejoin="round" stroke-width="1.75" d="M8.17 11.67v4.66h3.5v8.17h4.66v-8.17h3.5L21 11.67h-4.67V9.33a1.17 1.17 0 011.17-1.16H21V3.5h-3.5a5.83 5.83 0 00-5.83 5.83v2.34h-3.5z"></path>
  </symbol>
  <symbol xmlns="http://www.w3.org/2000/svg" fill="none" viewBox="0 0 30 30" id="share_icon">
    <path stroke-linecap="round" stroke-linejoin="round" stroke-width="1.88" d="M7.5 18.75a3.75 3.75 0 100-7.5 3.75 3.75 0 000 7.5zm15-7.5a3.75 3.75 0 100-7.5 3.75 3.75 0 000 7.5zm0 15a3.75 3.75 0 100-7.5 3.75 3.75 0 000 7.5zM10.88 13.38l8.24-4.26m-8.24 7.51l8.24 4.25"></path>
  </symbol>
  <symbol xmlns="http://www.w3.org/2000/svg" fill="none" viewBox="0 0 28 28" id="twitter_icon">
    <path stroke-linecap="round" stroke-linejoin="round" stroke-width="1.75" d="M25.33 5.13c-1.16.57-2.3.8-3.5 1.15-1.3-1.47-3.24-1.55-5.1-.86a4.59 4.59 0 00-3.06 4.36v1.17c-3.79.1-7.16-1.63-9.34-4.67 0 0-4.88 8.68 4.67 12.84-2.18 1.45-4.36 2.43-7 2.33 3.86 2.1 8.07 2.83 11.7 1.77a12.84 12.84 0 008.93-9.03c.4-1.43.6-2.9.58-4.38 0-.3 1.76-3.23 2.12-4.68v0z"></path>
  </symbol>
</svg>